<mxfile host="app.diagrams.net" agent="Mozilla/5.0 (Windows NT 10.0; Win64; x64) AppleWebKit/537.36 (KHTML, like Gecko) Chrome/129.0.0.0 Safari/537.36" version="24.7.17">
  <diagram name="PÃ¡gina-1" id="TPvvo_-l6tkurhbwpSG9">
    <mxGraphModel dx="3561" dy="1466" grid="1" gridSize="10" guides="1" tooltips="1" connect="1" arrows="1" fold="1" page="1" pageScale="1" pageWidth="827" pageHeight="1169" math="0" shadow="0">
      <root>
        <mxCell id="0" />
        <mxCell id="1" parent="0" />
        <mxCell id="-k7Hei3Dbmx0On5LG8Cz-501" value="" style="rounded=0;whiteSpace=wrap;html=1;" vertex="1" parent="1">
          <mxGeometry x="410.16" y="1180" width="165.55" height="110" as="geometry" />
        </mxCell>
        <mxCell id="-k7Hei3Dbmx0On5LG8Cz-504" style="edgeStyle=orthogonalEdgeStyle;rounded=0;orthogonalLoop=1;jettySize=auto;html=1;entryX=0;entryY=0.5;entryDx=0;entryDy=0;" edge="1" parent="1" source="-k7Hei3Dbmx0On5LG8Cz-497" target="-k7Hei3Dbmx0On5LG8Cz-491">
          <mxGeometry relative="1" as="geometry" />
        </mxCell>
        <mxCell id="-k7Hei3Dbmx0On5LG8Cz-505" style="edgeStyle=orthogonalEdgeStyle;rounded=0;orthogonalLoop=1;jettySize=auto;html=1;entryX=0;entryY=0.5;entryDx=0;entryDy=0;" edge="1" parent="1" source="-k7Hei3Dbmx0On5LG8Cz-497" target="-k7Hei3Dbmx0On5LG8Cz-501">
          <mxGeometry relative="1" as="geometry" />
        </mxCell>
        <mxCell id="-k7Hei3Dbmx0On5LG8Cz-497" value="" style="rounded=0;whiteSpace=wrap;html=1;" vertex="1" parent="1">
          <mxGeometry x="105.25" y="1180.59" width="155" height="109.88" as="geometry" />
        </mxCell>
        <mxCell id="-k7Hei3Dbmx0On5LG8Cz-486" value="" style="rounded=0;whiteSpace=wrap;html=1;" vertex="1" parent="1">
          <mxGeometry x="265.25" y="305" width="210" height="140" as="geometry" />
        </mxCell>
        <mxCell id="-k7Hei3Dbmx0On5LG8Cz-479" value="" style="rounded=0;whiteSpace=wrap;html=1;" vertex="1" parent="1">
          <mxGeometry x="265.25" y="30" width="220" height="140" as="geometry" />
        </mxCell>
        <mxCell id="-k7Hei3Dbmx0On5LG8Cz-468" value="Security group" style="fillColor=none;strokeColor=#DD3522;verticalAlign=top;fontStyle=0;fontColor=#DD3522;whiteSpace=wrap;html=1;" vertex="1" parent="1">
          <mxGeometry x="-745" y="645.45" width="200" height="160" as="geometry" />
        </mxCell>
        <mxCell id="-k7Hei3Dbmx0On5LG8Cz-423" value="" style="rounded=1;whiteSpace=wrap;html=1;" vertex="1" parent="1">
          <mxGeometry x="-374.75" y="510" width="930" height="389" as="geometry" />
        </mxCell>
        <mxCell id="-k7Hei3Dbmx0On5LG8Cz-465" style="edgeStyle=orthogonalEdgeStyle;rounded=0;orthogonalLoop=1;jettySize=auto;html=1;" edge="1" parent="1" source="-k7Hei3Dbmx0On5LG8Cz-461" target="-k7Hei3Dbmx0On5LG8Cz-425">
          <mxGeometry relative="1" as="geometry" />
        </mxCell>
        <mxCell id="-k7Hei3Dbmx0On5LG8Cz-461" value="" style="rounded=0;whiteSpace=wrap;html=1;" vertex="1" parent="1">
          <mxGeometry x="-354.75" y="944.75" width="200" height="150" as="geometry" />
        </mxCell>
        <mxCell id="-k7Hei3Dbmx0On5LG8Cz-451" style="edgeStyle=orthogonalEdgeStyle;rounded=0;orthogonalLoop=1;jettySize=auto;html=1;" edge="1" parent="1" source="-k7Hei3Dbmx0On5LG8Cz-450" target="-k7Hei3Dbmx0On5LG8Cz-424">
          <mxGeometry relative="1" as="geometry">
            <Array as="points">
              <mxPoint x="-424.75" y="535" />
              <mxPoint x="-424.75" y="648" />
            </Array>
          </mxGeometry>
        </mxCell>
        <mxCell id="-k7Hei3Dbmx0On5LG8Cz-473" style="edgeStyle=orthogonalEdgeStyle;rounded=0;orthogonalLoop=1;jettySize=auto;html=1;" edge="1" parent="1" source="-k7Hei3Dbmx0On5LG8Cz-450" target="-k7Hei3Dbmx0On5LG8Cz-425">
          <mxGeometry relative="1" as="geometry">
            <Array as="points">
              <mxPoint x="-424.75" y="570" />
              <mxPoint x="-424.75" y="535" />
              <mxPoint x="-24.75" y="535" />
              <mxPoint x="-24.75" y="560" />
              <mxPoint x="80.25" y="560" />
            </Array>
          </mxGeometry>
        </mxCell>
        <mxCell id="-k7Hei3Dbmx0On5LG8Cz-476" style="edgeStyle=orthogonalEdgeStyle;rounded=0;orthogonalLoop=1;jettySize=auto;html=1;" edge="1" parent="1" source="-k7Hei3Dbmx0On5LG8Cz-450" target="-k7Hei3Dbmx0On5LG8Cz-444">
          <mxGeometry relative="1" as="geometry">
            <Array as="points">
              <mxPoint x="-424.75" y="500" />
              <mxPoint x="-424.75" y="535" />
              <mxPoint x="-24.75" y="535" />
              <mxPoint x="-24.75" y="560" />
              <mxPoint x="425.25" y="560" />
            </Array>
          </mxGeometry>
        </mxCell>
        <mxCell id="-k7Hei3Dbmx0On5LG8Cz-450" value="" style="rounded=0;whiteSpace=wrap;html=1;" vertex="1" parent="1">
          <mxGeometry x="-750" y="468.75" width="210" height="132.5" as="geometry" />
        </mxCell>
        <mxCell id="-k7Hei3Dbmx0On5LG8Cz-483" style="edgeStyle=orthogonalEdgeStyle;rounded=0;orthogonalLoop=1;jettySize=auto;html=1;entryX=0;entryY=0.5;entryDx=0;entryDy=0;" edge="1" parent="1" source="-k7Hei3Dbmx0On5LG8Cz-438" target="-k7Hei3Dbmx0On5LG8Cz-479">
          <mxGeometry relative="1" as="geometry">
            <Array as="points">
              <mxPoint x="5.25" y="100" />
            </Array>
          </mxGeometry>
        </mxCell>
        <mxCell id="-k7Hei3Dbmx0On5LG8Cz-489" style="edgeStyle=orthogonalEdgeStyle;rounded=0;orthogonalLoop=1;jettySize=auto;html=1;" edge="1" parent="1" source="-k7Hei3Dbmx0On5LG8Cz-438" target="-k7Hei3Dbmx0On5LG8Cz-486">
          <mxGeometry relative="1" as="geometry">
            <Array as="points">
              <mxPoint x="225.25" y="380" />
              <mxPoint x="225.25" y="380" />
            </Array>
          </mxGeometry>
        </mxCell>
        <mxCell id="-k7Hei3Dbmx0On5LG8Cz-438" value="" style="rounded=1;whiteSpace=wrap;html=1;" vertex="1" parent="1">
          <mxGeometry x="-113.25" y="305" width="230" height="150" as="geometry" />
        </mxCell>
        <mxCell id="-k7Hei3Dbmx0On5LG8Cz-442" style="edgeStyle=orthogonalEdgeStyle;rounded=0;orthogonalLoop=1;jettySize=auto;html=1;entryX=0.5;entryY=1;entryDx=0;entryDy=0;" edge="1" parent="1" source="-k7Hei3Dbmx0On5LG8Cz-424" target="-k7Hei3Dbmx0On5LG8Cz-438">
          <mxGeometry relative="1" as="geometry" />
        </mxCell>
        <mxCell id="-k7Hei3Dbmx0On5LG8Cz-424" value="Subnet" style="sketch=0;outlineConnect=0;gradientColor=none;html=1;whiteSpace=wrap;fontSize=12;fontStyle=0;shape=mxgraph.aws4.group;grIcon=mxgraph.aws4.group_subnet;strokeColor=#879196;fillColor=none;verticalAlign=top;align=left;spacingLeft=30;fontColor=#879196;dashed=0;" vertex="1" parent="1">
          <mxGeometry x="-304.75" y="575" width="180" height="145" as="geometry" />
        </mxCell>
        <mxCell id="-k7Hei3Dbmx0On5LG8Cz-425" value="Subnet" style="sketch=0;outlineConnect=0;gradientColor=none;html=1;whiteSpace=wrap;fontSize=12;fontStyle=0;shape=mxgraph.aws4.group;grIcon=mxgraph.aws4.group_subnet;strokeColor=#879196;fillColor=none;verticalAlign=top;align=left;spacingLeft=30;fontColor=#879196;dashed=0;" vertex="1" parent="1">
          <mxGeometry x="-24.75" y="720" width="210" height="150" as="geometry" />
        </mxCell>
        <mxCell id="-k7Hei3Dbmx0On5LG8Cz-426" value="" style="verticalLabelPosition=bottom;aspect=fixed;html=1;shape=mxgraph.salesforce.web;" vertex="1" parent="1">
          <mxGeometry x="39.25" y="758.4" width="82.66" height="65.3" as="geometry" />
        </mxCell>
        <mxCell id="-k7Hei3Dbmx0On5LG8Cz-427" value="" style="html=1;verticalLabelPosition=bottom;align=center;labelBackgroundColor=#ffffff;verticalAlign=top;strokeWidth=2;strokeColor=#0080F0;shadow=0;dashed=0;shape=mxgraph.ios7.icons.data;" vertex="1" parent="1">
          <mxGeometry x="398.25" y="645.45" width="54" height="69.1" as="geometry" />
        </mxCell>
        <mxCell id="-k7Hei3Dbmx0On5LG8Cz-429" value="&lt;font style=&quot;font-size: 18px;&quot;&gt;10.0.1.0/24&lt;/font&gt;" style="text;html=1;align=center;verticalAlign=middle;whiteSpace=wrap;rounded=0;" vertex="1" parent="1">
          <mxGeometry x="50.25" y="830" width="60" height="30" as="geometry" />
        </mxCell>
        <mxCell id="-k7Hei3Dbmx0On5LG8Cz-433" value="" style="outlineConnect=0;dashed=0;verticalLabelPosition=bottom;verticalAlign=top;align=center;html=1;shape=mxgraph.aws3.workspaces;fillColor=#D16A28;gradientColor=#F58435;gradientDirection=north;" vertex="1" parent="1">
          <mxGeometry x="-245.37" y="610" width="61.25" height="74.75" as="geometry" />
        </mxCell>
        <mxCell id="-k7Hei3Dbmx0On5LG8Cz-434" value="&lt;font style=&quot;font-size: 18px;&quot;&gt;10.0.2.0/24&lt;/font&gt;" style="text;html=1;align=center;verticalAlign=middle;whiteSpace=wrap;rounded=0;" vertex="1" parent="1">
          <mxGeometry x="-244.12" y="684.55" width="60" height="30" as="geometry" />
        </mxCell>
        <mxCell id="-k7Hei3Dbmx0On5LG8Cz-452" style="edgeStyle=orthogonalEdgeStyle;rounded=0;orthogonalLoop=1;jettySize=auto;html=1;" edge="1" parent="1" target="-k7Hei3Dbmx0On5LG8Cz-424">
          <mxGeometry relative="1" as="geometry">
            <mxPoint x="-545.2500000000005" y="700" as="sourcePoint" />
            <Array as="points">
              <mxPoint x="-424.75" y="700" />
              <mxPoint x="-424.75" y="648" />
            </Array>
          </mxGeometry>
        </mxCell>
        <mxCell id="-k7Hei3Dbmx0On5LG8Cz-453" style="edgeStyle=orthogonalEdgeStyle;rounded=0;orthogonalLoop=1;jettySize=auto;html=1;" edge="1" parent="1" target="-k7Hei3Dbmx0On5LG8Cz-444">
          <mxGeometry relative="1" as="geometry">
            <mxPoint x="-545.2500000000005" y="730" as="sourcePoint" />
            <Array as="points">
              <mxPoint x="-84.75" y="730" />
              <mxPoint x="-84.75" y="680" />
            </Array>
          </mxGeometry>
        </mxCell>
        <mxCell id="-k7Hei3Dbmx0On5LG8Cz-466" style="edgeStyle=orthogonalEdgeStyle;rounded=0;orthogonalLoop=1;jettySize=auto;html=1;" edge="1" parent="1" target="-k7Hei3Dbmx0On5LG8Cz-425">
          <mxGeometry relative="1" as="geometry">
            <mxPoint x="-545.2500000000005" y="760" as="sourcePoint" />
            <Array as="points">
              <mxPoint x="-334.75" y="760" />
              <mxPoint x="-334.75" y="795" />
            </Array>
          </mxGeometry>
        </mxCell>
        <mxCell id="-k7Hei3Dbmx0On5LG8Cz-436" value="Networkd Security Group" style="text;html=1;align=center;verticalAlign=middle;whiteSpace=wrap;rounded=0;" vertex="1" parent="1">
          <mxGeometry x="-735" y="664.9499999999999" width="180" height="30" as="geometry" />
        </mxCell>
        <mxCell id="-k7Hei3Dbmx0On5LG8Cz-437" value="" style="image;aspect=fixed;html=1;points=[];align=center;fontSize=12;image=img/lib/azure2/databases/Azure_Database_MySQL_Server.svg;" vertex="1" parent="1">
          <mxGeometry x="-25.25" y="344" width="54" height="72" as="geometry" />
        </mxCell>
        <mxCell id="-k7Hei3Dbmx0On5LG8Cz-439" value="SQL SERVER" style="text;html=1;align=center;verticalAlign=middle;whiteSpace=wrap;rounded=0;" vertex="1" parent="1">
          <mxGeometry x="-68.25" y="305" width="140" height="30" as="geometry" />
        </mxCell>
        <mxCell id="-k7Hei3Dbmx0On5LG8Cz-441" value="&lt;font style=&quot;font-size: 18px;&quot;&gt;sql-contable-dev&lt;/font&gt;" style="text;html=1;align=center;verticalAlign=middle;whiteSpace=wrap;rounded=0;" vertex="1" parent="1">
          <mxGeometry x="-68.25" y="417" width="140" height="30" as="geometry" />
        </mxCell>
        <mxCell id="-k7Hei3Dbmx0On5LG8Cz-444" value="Subnet" style="sketch=0;outlineConnect=0;gradientColor=none;html=1;whiteSpace=wrap;fontSize=12;fontStyle=0;shape=mxgraph.aws4.group;grIcon=mxgraph.aws4.group_subnet;strokeColor=#879196;fillColor=none;verticalAlign=top;align=left;spacingLeft=30;fontColor=#879196;dashed=0;" vertex="1" parent="1">
          <mxGeometry x="335.25" y="607.5" width="180" height="145" as="geometry" />
        </mxCell>
        <mxCell id="-k7Hei3Dbmx0On5LG8Cz-445" value="&lt;font style=&quot;font-size: 18px;&quot;&gt;10.0.3.0/24&lt;/font&gt;" style="text;html=1;align=center;verticalAlign=middle;whiteSpace=wrap;rounded=0;" vertex="1" parent="1">
          <mxGeometry x="395.25" y="720" width="60" height="30" as="geometry" />
        </mxCell>
        <mxCell id="-k7Hei3Dbmx0On5LG8Cz-446" value="" style="image;aspect=fixed;html=1;points=[];align=center;fontSize=12;image=img/lib/azure2/networking/Private_Endpoint.svg;" vertex="1" parent="1">
          <mxGeometry x="338.34000000000003" y="62" width="81.82" height="75" as="geometry" />
        </mxCell>
        <mxCell id="-k7Hei3Dbmx0On5LG8Cz-448" value="" style="image;html=1;image=img/lib/clip_art/computers/Virtual_Application_128x128.png" vertex="1" parent="1">
          <mxGeometry x="-684.75" y="490" width="80" height="80" as="geometry" />
        </mxCell>
        <mxCell id="-k7Hei3Dbmx0On5LG8Cz-464" style="edgeStyle=orthogonalEdgeStyle;rounded=0;orthogonalLoop=1;jettySize=auto;html=1;entryX=0;entryY=0.5;entryDx=0;entryDy=0;" edge="1" parent="1" source="-k7Hei3Dbmx0On5LG8Cz-449" target="-k7Hei3Dbmx0On5LG8Cz-461">
          <mxGeometry relative="1" as="geometry" />
        </mxCell>
        <mxCell id="-k7Hei3Dbmx0On5LG8Cz-449" value="" style="rounded=0;whiteSpace=wrap;html=1;" vertex="1" parent="1">
          <mxGeometry x="-744.75" y="870" width="200" height="140" as="geometry" />
        </mxCell>
        <mxCell id="-k7Hei3Dbmx0On5LG8Cz-455" value="" style="image;aspect=fixed;html=1;points=[];align=center;fontSize=12;image=img/lib/azure2/app_services/App_Service_Plans.svg;" vertex="1" parent="1">
          <mxGeometry x="-675.25" y="900" width="61" height="61" as="geometry" />
        </mxCell>
        <mxCell id="-k7Hei3Dbmx0On5LG8Cz-456" value="App Service Plan" style="text;html=1;align=center;verticalAlign=middle;whiteSpace=wrap;rounded=0;" vertex="1" parent="1">
          <mxGeometry x="-710" y="870" width="130" height="30" as="geometry" />
        </mxCell>
        <mxCell id="-k7Hei3Dbmx0On5LG8Cz-457" value="asp-contable-dev&lt;div&gt;(Linux, S1)&lt;/div&gt;" style="text;html=1;align=center;verticalAlign=middle;whiteSpace=wrap;rounded=0;" vertex="1" parent="1">
          <mxGeometry x="-710" y="970" width="130" height="30" as="geometry" />
        </mxCell>
        <mxCell id="-k7Hei3Dbmx0On5LG8Cz-458" value="" style="shape=image;html=1;verticalAlign=top;verticalLabelPosition=bottom;labelBackgroundColor=#ffffff;imageAspect=0;aspect=fixed;image=https://cdn1.iconfinder.com/data/icons/hawcons/32/700045-icon-86-document-file-php-128.png" vertex="1" parent="1">
          <mxGeometry x="-297.25" y="970" width="85" height="85" as="geometry" />
        </mxCell>
        <mxCell id="-k7Hei3Dbmx0On5LG8Cz-459" value="&lt;font style=&quot;font-size: 24px;&quot;&gt;Subnets&lt;/font&gt;" style="text;html=1;align=center;verticalAlign=middle;whiteSpace=wrap;rounded=0;" vertex="1" parent="1">
          <mxGeometry x="50.25" y="520" width="60" height="30" as="geometry" />
        </mxCell>
        <mxCell id="-k7Hei3Dbmx0On5LG8Cz-462" value="Web App" style="text;html=1;align=center;verticalAlign=middle;whiteSpace=wrap;rounded=0;" vertex="1" parent="1">
          <mxGeometry x="-284.75" y="950" width="60" height="30" as="geometry" />
        </mxCell>
        <mxCell id="-k7Hei3Dbmx0On5LG8Cz-463" value="app-contable-dev&lt;div&gt;(PHP 8.0)&lt;/div&gt;" style="text;html=1;align=center;verticalAlign=middle;whiteSpace=wrap;rounded=0;" vertex="1" parent="1">
          <mxGeometry x="-309.5" y="1055" width="109.5" height="30" as="geometry" />
        </mxCell>
        <mxCell id="-k7Hei3Dbmx0On5LG8Cz-467" value="" style="image;aspect=fixed;perimeter=ellipsePerimeter;html=1;align=center;shadow=0;dashed=0;spacingTop=3;image=img/lib/active_directory/security.svg;" vertex="1" parent="1">
          <mxGeometry x="-675.25" y="694.9499999999999" width="44.1" height="70" as="geometry" />
        </mxCell>
        <mxCell id="-k7Hei3Dbmx0On5LG8Cz-469" value="&lt;font style=&quot;font-size: 14px;&quot;&gt;nsg-contable-dev&lt;/font&gt;&lt;div&gt;&lt;br&gt;&lt;/div&gt;" style="text;html=1;align=center;verticalAlign=middle;whiteSpace=wrap;rounded=0;" vertex="1" parent="1">
          <mxGeometry x="-727.2" y="776.45" width="160" height="30" as="geometry" />
        </mxCell>
        <mxCell id="-k7Hei3Dbmx0On5LG8Cz-470" value="WEB" style="text;html=1;align=center;verticalAlign=middle;whiteSpace=wrap;rounded=0;" vertex="1" parent="1">
          <mxGeometry x="45.25" y="722.5" width="60" height="30" as="geometry" />
        </mxCell>
        <mxCell id="-k7Hei3Dbmx0On5LG8Cz-471" value="APP" style="text;html=1;align=center;verticalAlign=middle;whiteSpace=wrap;rounded=0;" vertex="1" parent="1">
          <mxGeometry x="-245.37" y="577.5" width="60" height="30" as="geometry" />
        </mxCell>
        <mxCell id="-k7Hei3Dbmx0On5LG8Cz-472" value="DATA" style="text;html=1;align=center;verticalAlign=middle;whiteSpace=wrap;rounded=0;" vertex="1" parent="1">
          <mxGeometry x="395.25" y="615.45" width="60" height="30" as="geometry" />
        </mxCell>
        <mxCell id="-k7Hei3Dbmx0On5LG8Cz-477" value="Virtual Network" style="text;html=1;align=center;verticalAlign=middle;whiteSpace=wrap;rounded=0;" vertex="1" parent="1">
          <mxGeometry x="-690.12" y="468.75" width="90.25" height="30" as="geometry" />
        </mxCell>
        <mxCell id="-k7Hei3Dbmx0On5LG8Cz-478" value="vnet-contabe-dev&lt;div&gt;10.0.0.0/16&lt;/div&gt;&lt;div&gt;&lt;br&gt;&lt;/div&gt;" style="text;html=1;align=center;verticalAlign=middle;whiteSpace=wrap;rounded=0;" vertex="1" parent="1">
          <mxGeometry x="-714.75" y="575" width="140" height="30" as="geometry" />
        </mxCell>
        <mxCell id="-k7Hei3Dbmx0On5LG8Cz-480" value="Private-Endpoint" style="text;html=1;align=center;verticalAlign=middle;whiteSpace=wrap;rounded=0;" vertex="1" parent="1">
          <mxGeometry x="319.25" y="32" width="120" height="30" as="geometry" />
        </mxCell>
        <mxCell id="-k7Hei3Dbmx0On5LG8Cz-481" value="pe-sql-contable-dev" style="text;html=1;align=center;verticalAlign=middle;whiteSpace=wrap;rounded=0;" vertex="1" parent="1">
          <mxGeometry x="314.25" y="137" width="130" height="30" as="geometry" />
        </mxCell>
        <mxCell id="-k7Hei3Dbmx0On5LG8Cz-484" style="edgeStyle=orthogonalEdgeStyle;rounded=0;orthogonalLoop=1;jettySize=auto;html=1;exitX=1;exitY=0.5;exitDx=0;exitDy=0;" edge="1" parent="1" source="-k7Hei3Dbmx0On5LG8Cz-479" target="-k7Hei3Dbmx0On5LG8Cz-444">
          <mxGeometry relative="1" as="geometry">
            <mxPoint x="655.25" y="80" as="sourcePoint" />
            <Array as="points">
              <mxPoint x="725.25" y="100" />
              <mxPoint x="725.25" y="680" />
            </Array>
          </mxGeometry>
        </mxCell>
        <mxCell id="-k7Hei3Dbmx0On5LG8Cz-485" value="" style="image;sketch=0;aspect=fixed;html=1;points=[];align=center;fontSize=12;image=img/lib/mscae/SQL_Database_generic.svg;" vertex="1" parent="1">
          <mxGeometry x="349.71" y="341.39" width="51.09" height="67.22" as="geometry" />
        </mxCell>
        <mxCell id="-k7Hei3Dbmx0On5LG8Cz-487" value="SQL-Database" style="text;html=1;align=center;verticalAlign=middle;whiteSpace=wrap;rounded=0;" vertex="1" parent="1">
          <mxGeometry x="325.25" y="311.39" width="100.01" height="30" as="geometry" />
        </mxCell>
        <mxCell id="-k7Hei3Dbmx0On5LG8Cz-488" value="sqldb-contable-dev" style="text;html=1;align=center;verticalAlign=middle;whiteSpace=wrap;rounded=0;" vertex="1" parent="1">
          <mxGeometry x="310.26" y="408.61" width="130" height="30" as="geometry" />
        </mxCell>
        <mxCell id="-k7Hei3Dbmx0On5LG8Cz-506" style="edgeStyle=orthogonalEdgeStyle;rounded=0;orthogonalLoop=1;jettySize=auto;html=1;" edge="1" parent="1" source="-k7Hei3Dbmx0On5LG8Cz-491" target="-k7Hei3Dbmx0On5LG8Cz-444">
          <mxGeometry relative="1" as="geometry" />
        </mxCell>
        <mxCell id="-k7Hei3Dbmx0On5LG8Cz-491" value="" style="rounded=0;whiteSpace=wrap;html=1;" vertex="1" parent="1">
          <mxGeometry x="255.25" y="950" width="220" height="140" as="geometry" />
        </mxCell>
        <mxCell id="-k7Hei3Dbmx0On5LG8Cz-492" value="" style="image;aspect=fixed;html=1;points=[];align=center;fontSize=12;image=img/lib/azure2/networking/Private_Endpoint.svg;" vertex="1" parent="1">
          <mxGeometry x="328.34000000000003" y="982" width="81.82" height="75" as="geometry" />
        </mxCell>
        <mxCell id="-k7Hei3Dbmx0On5LG8Cz-493" value="Private-Endpoint" style="text;html=1;align=center;verticalAlign=middle;whiteSpace=wrap;rounded=0;" vertex="1" parent="1">
          <mxGeometry x="309.25" y="952" width="120" height="30" as="geometry" />
        </mxCell>
        <mxCell id="-k7Hei3Dbmx0On5LG8Cz-494" value="pe-storage-contable-dev" style="text;html=1;align=center;verticalAlign=middle;whiteSpace=wrap;rounded=0;" vertex="1" parent="1">
          <mxGeometry x="307.25" y="1055" width="134" height="30" as="geometry" />
        </mxCell>
        <mxCell id="-k7Hei3Dbmx0On5LG8Cz-496" value="" style="image;aspect=fixed;html=1;points=[];align=center;fontSize=12;image=img/lib/azure2/storage/Storage_Accounts.svg;" vertex="1" parent="1">
          <mxGeometry x="150.25" y="1209.53" width="65" height="52" as="geometry" />
        </mxCell>
        <mxCell id="-k7Hei3Dbmx0On5LG8Cz-498" value="Storage Account" style="text;html=1;align=center;verticalAlign=middle;whiteSpace=wrap;rounded=0;" vertex="1" parent="1">
          <mxGeometry x="130.25" y="1179.53" width="110" height="30" as="geometry" />
        </mxCell>
        <mxCell id="-k7Hei3Dbmx0On5LG8Cz-499" value="stcontabledev" style="text;html=1;align=center;verticalAlign=middle;whiteSpace=wrap;rounded=0;" vertex="1" parent="1">
          <mxGeometry x="125.25999999999999" y="1260.47" width="110" height="30" as="geometry" />
        </mxCell>
        <mxCell id="-k7Hei3Dbmx0On5LG8Cz-500" value="" style="sketch=0;pointerEvents=1;shadow=0;dashed=0;html=1;strokeColor=none;fillColor=#DF8C42;labelPosition=center;verticalLabelPosition=bottom;verticalAlign=top;align=center;outlineConnect=0;shape=mxgraph.veeam2.azure_blob;" vertex="1" parent="1">
          <mxGeometry x="459.25" y="1200" width="70" height="70" as="geometry" />
        </mxCell>
        <mxCell id="-k7Hei3Dbmx0On5LG8Cz-502" value="Blob Container" style="text;html=1;align=center;verticalAlign=middle;whiteSpace=wrap;rounded=0;" vertex="1" parent="1">
          <mxGeometry x="445.71000000000004" y="1176" width="100" height="30" as="geometry" />
        </mxCell>
        <mxCell id="-k7Hei3Dbmx0On5LG8Cz-503" value="documents" style="text;html=1;align=center;verticalAlign=middle;whiteSpace=wrap;rounded=0;" vertex="1" parent="1">
          <mxGeometry x="442.94000000000005" y="1263" width="100" height="30" as="geometry" />
        </mxCell>
      </root>
    </mxGraphModel>
  </diagram>
</mxfile>
